<?xml version="1.0" encoding="UTF-8"?><svg id="a" xmlns="http://www.w3.org/2000/svg" viewBox="0 0 249.35 185.08"><path d="M9.02,131.76c.28,0,.52,0,.73,0,.2,0,.37.02.5.02,2.86,0,5.02-.62,6.47-1.86,1.45-1.24,2.18-2.82,2.18-4.74s-.59-3.39-1.76-4.57c-1.17-1.17-2.73-1.75-4.65-1.75-.86,0-2.01.14-3.47.42v12.47Z" fill="none" stroke="#1b130d" stroke-linecap="round" stroke-linejoin="round" stroke-width=".75"/><path d="M30.31,147.18h-8l-10.15-14.02c-.75.03-1.36.04-1.83.04-.19,0-.4,0-.62-.02-.23,0-.45-.02-.69-.03v8.71c0,1.88.2,3.05.62,3.51.56.64,1.4.97,2.52.97h1.17v.82H.48v-.82h1.13c1.27,0,2.18-.42,2.72-1.24.31-.46.47-1.54.47-3.24v-19.37c0-1.89-.21-3.06-.62-3.51-.58-.65-1.43-.98-2.57-.98H.48v-.82h10.93c3.18,0,5.53.23,7.04.69,1.51.47,2.8,1.32,3.85,2.57,1.05,1.25,1.58,2.73,1.58,4.45,0,1.85-.6,3.45-1.8,4.8-1.2,1.36-3.06,2.32-5.58,2.87l6.19,8.61c1.41,1.97,2.63,3.28,3.65,3.93,1.02.65,2.34,1.06,3.98,1.24v.82Z" fill="none" stroke="#1b130d" stroke-linecap="round" stroke-linejoin="round" stroke-width=".75"/><polygon points="58.36 135.5 53.28 123.39 48.06 135.5 58.36 135.5" fill="none" stroke="#1b130d" stroke-linecap="round" stroke-linejoin="round" stroke-width=".75"/><path d="M58.98,137.14h-11.6l-2.04,4.74c-.49,1.16-.75,2.03-.75,2.6,0,.46.22.86.65,1.21.43.35,1.37.57,2.82.68v.82h-9.44v-.82c1.25-.23,2.07-.51,2.43-.87.75-.7,1.59-2.14,2.5-4.3l10.54-24.68h.77l10.44,24.94c.84,2,1.61,3.31,2.29,3.9.69.6,1.64.93,2.86,1.01v.82h-11.83v-.82c1.19-.06,2-.26,2.42-.6.42-.34.62-.76.62-1.24,0-.64-.3-1.67-.89-3.07l-1.81-4.31Z" fill="none" stroke="#1b130d" stroke-linecap="round" stroke-linejoin="round" stroke-width=".75"/><path d="M114.11,117.19v.82c-.78,0-1.42.15-1.9.43-.49.28-.95.8-1.39,1.57-.3.51-.76,1.74-1.4,3.69l-8.36,24.17h-.89l-6.83-19.17-6.79,19.17h-.8l-8.91-24.9c-.66-1.86-1.08-2.95-1.26-3.29-.29-.56-.69-.98-1.21-1.25-.51-.28-1.2-.42-2.07-.42v-.82h11.1v.82h-.53c-.78,0-1.38.18-1.8.54-.41.35-.62.78-.62,1.27,0,.52.32,1.71.97,3.57l5.9,16.82,4.98-14.3-.89-2.52-.71-2.01c-.31-.74-.65-1.39-1.04-1.95-.19-.28-.43-.51-.7-.7-.37-.27-.74-.46-1.11-.57-.28-.09-.72-.14-1.32-.14v-.82h11.67v.82h-.8c-.82,0-1.43.18-1.81.54-.38.35-.57.83-.57,1.43,0,.76.33,2.07,1,3.94l5.75,16.29,5.7-16.51c.65-1.82.97-3.09.97-3.8,0-.34-.1-.66-.31-.96-.22-.29-.49-.5-.81-.62-.56-.21-1.29-.31-2.2-.31v-.82h8.96Z" fill="none" stroke="#1b130d" stroke-linecap="round" stroke-linejoin="round" stroke-width=".75"/><polygon points="135.72 135.5 130.64 123.39 125.42 135.5 135.72 135.5" fill="none" stroke="#1b130d" stroke-linecap="round" stroke-linejoin="round" stroke-width=".75"/><path d="M136.34,137.14h-11.6l-2.04,4.74c-.49,1.16-.75,2.03-.75,2.6,0,.46.22.86.65,1.21.43.35,1.37.57,2.82.68v.82h-9.44v-.82c1.25-.23,2.07-.51,2.43-.87.76-.7,1.59-2.14,2.5-4.3l10.54-24.68h.77l10.44,24.94c.84,2,1.61,3.31,2.29,3.9.68.6,1.64.93,2.86,1.01v.82h-11.83v-.82c1.19-.06,2-.26,2.42-.6.42-.34.62-.76.62-1.24,0-.64-.3-1.67-.89-3.07l-1.81-4.31Z" fill="none" stroke="#1b130d" stroke-linecap="round" stroke-linejoin="round" stroke-width=".75"/><path d="M160.37,118.01v-.82h12.84v.82h-1.08c-1.22,0-2.12.36-2.67,1.09-.36.48-.53,1.6-.53,3.41v14.66c0,2.26-.25,4.08-.75,5.49-.49,1.4-1.35,2.62-2.55,3.65-1.21,1.04-2.66,1.56-4.37,1.56-1.39,0-2.48-.35-3.27-1.02-.8-.68-1.2-1.47-1.2-2.36,0-.72.18-1.27.56-1.63.49-.46,1.05-.69,1.7-.69.47,0,.89.15,1.27.46.38.31.85,1.14,1.43,2.48.34.79.77,1.19,1.3,1.19.4,0,.77-.24,1.12-.73.35-.49.52-1.35.52-2.59v-20.47c0-1.52-.1-2.52-.29-3.01-.15-.36-.45-.69-.93-.95-.63-.36-1.3-.54-2-.54h-1.08Z" fill="none" stroke="#1b130d" stroke-linecap="round" stroke-linejoin="round" stroke-width=".75"/><path d="M191.76,118.83v11.85h6.6c1.71,0,2.85-.25,3.43-.77.76-.68,1.19-1.88,1.28-3.59h.82v10.44h-.82c-.2-1.46-.41-2.4-.62-2.81-.27-.51-.7-.92-1.3-1.22-.61-.29-1.54-.44-2.79-.44h-6.6v9.88c0,1.33.06,2.14.18,2.42.11.29.32.52.62.68.29.17.86.25,1.68.25h5.09c1.69,0,2.92-.11,3.69-.35.77-.24,1.51-.7,2.21-1.4.91-.91,1.85-2.29,2.81-4.13h.89l-2.59,7.51h-23.1v-.82h1.06c.71,0,1.38-.17,2.01-.51.47-.23.79-.59.96-1.06.16-.48.25-1.44.25-2.9v-19.48c0-1.9-.19-3.07-.57-3.51-.53-.59-1.41-.89-2.66-.89h-1.06v-.82h23.1l.34,6.57h-.87c-.3-1.58-.65-2.66-1.02-3.25-.37-.59-.94-1.03-1.67-1.35-.59-.23-1.63-.33-3.12-.33h-8.23Z" fill="none" stroke="#1b130d" stroke-linecap="round" stroke-linejoin="round" stroke-width=".75"/><path d="M226.52,131.1h13.93v-8.58c0-1.53-.09-2.54-.29-3.03-.15-.36-.46-.69-.93-.95-.63-.36-1.31-.54-2.01-.54h-1.07v-.82h12.83v.82h-1.06c-.71,0-1.38.17-2.01.51-.47.23-.79.59-.96,1.08-.17.48-.25,1.45-.25,2.92v19.35c0,1.51.1,2.52.29,3,.15.37.45.69.91.96.64.35,1.32.53,2.03.53h1.06v.82h-12.83v-.82h1.07c1.22,0,2.11-.36,2.67-1.08.37-.47.55-1.61.55-3.4v-9.14h-13.93v9.14c0,1.51.09,2.52.29,3,.15.37.45.69.93.96.63.35,1.3.53,2.01.53h1.08v.82h-12.84v-.82h1.06c1.24,0,2.14-.36,2.7-1.08.36-.47.53-1.61.53-3.4v-19.35c0-1.53-.1-2.54-.29-3.03-.15-.36-.45-.69-.9-.95-.65-.36-1.33-.54-2.04-.54h-1.06v-.82h12.84v.82h-1.08c-.71,0-1.38.17-2.01.51-.46.23-.77.59-.96,1.08-.17.48-.26,1.45-.26,2.92v8.58Z" fill="none" stroke="#1b130d" stroke-linecap="round" stroke-linejoin="round" stroke-width=".75"/><path d="M201.96,52.11c-1.5,0-2.62-1.12-2.62-3.15,0-1.88,1.2-2.78,2.55-2.78,1.5,0,3.3,1.12,3.9,3.38-1.12,1.57-2.62,2.55-3.82,2.55" fill="none" stroke="#1b130d" stroke-linecap="round" stroke-linejoin="round" stroke-width=".75"/><path d="M239.37,40.57h-.6l-2.77,11.25c3.97,3.3,8.92,10.65,8.92,14.1,0,2.4-.98,5.77-3.6,10.5-7.12,12.82-22.2,22.27-30.37,22.27-3.01,0-7.32-.78-10.14-1.74,0,0,0,0,0,0,2.44-2.43,4.43-5.19,5.94-7.71,6.45-10.8,8.1-19.94,8.1-31.64,0-4.35-.52-11.25-3-16.65-2.1-4.65-4.42-6.9-6.9-6.9-3.9,0-11.4,13.27-11.4,20.32,0,5.1,4.2,9.15,8.92,9.15,3.6,0,5.55-2.4,7.27-5.1.6,1.35,1.05,3.07,1.05,6.07,0,3.82-1.05,7.2-3.67,11.92-7.12,12.82-22.19,22.27-30.37,22.27-3.03,0-7.4-.8-10.21-1.77,0,0,0,0,0,0,1.77-5.01,3.16-9.7,4.14-13.98,1.5-6.45,2.02-12.15,2.02-16.8,0-2.47-.15-4.57-.38-6.45l-6.52-52.19.3-6.75-.75-.38-3.52,5.77c-1.5,2.48-2.4,5.17-2.4,7.42,0,.3,0,.6.07.9l6.3,44.69c1.12,8.17,1.72,13.5,1.72,17.99,0,2.32-.15,4.42-.45,6.6-1.35,9.37-2.1,12.6-2.33,13.5l1.42.67h0c5.57,2.73,14.18,5.92,19.94,5.92,5.44,0,10.12-2.64,13.86-6.12,5.55,2.77,14.43,6.12,20.34,6.12,9.52,0,16.65-8.17,20.62-14.62,5.92-9.67,8.02-17.1,8.02-27.07,0-5.32-1.8-13.5-9.6-21.6" fill="none" stroke="#1b130d" stroke-linecap="round" stroke-linejoin="round" stroke-width=".75"/><polygon points="120.79 91.7 130.77 97.63 136.24 88.55 126.42 83.08 120.79 91.7" fill="none" stroke="#1b130d" stroke-linecap="round" stroke-linejoin="round" stroke-width=".75"/><path d="M124.58,47.31c-8.92-4.27-16.05-6.67-22.34-6.67-10.5,0-18.37,6.07-25.2,17.32l1.58,1.05c3.97-5.25,9.6-8.32,18.75-8.32,7.68,0,17.96,4.28,24.06,7.68-10.44,4.3-30.37,13.77-46.78,13.77-9.9,0-18.52-3.45-22.87-13.65.82-.22,4.95-.97,12.75-.97l4.42-8.47-.22-.98c-2.93,0-7.42.08-12,.08-5.4,0-10.87-.15-13.8-.68-7.42-1.27-14.92-3.37-21.45-3.37-8.55,0-15.52,3.52-19.12,16.95l1.12.3c3.23-5.32,5.92-7.35,12.07-7.35,4.57,0,12.67,1.05,16.65,2.55C16.83,63.73,1.01,80.76.48,103.85h3.37c1.5-24.37,27.14-42.89,44.84-44.91,1.42,18.3,11.47,24.22,24.44,24.22,23.54,0,53.09-19.57,65.23-19.57,4.65,0,8.1.38,12.15,1.12l4.65-8.85-.22-.98c-10.2-1.35-21-3.07-30.37-7.57" fill="none" stroke="#1b130d" stroke-linecap="round" stroke-linejoin="round" stroke-width=".75"/><path d="M204.88,182.37h.16c.14-.41.53-1.83,1.24-2.57h13.91c.67,0,1.05-.07,1.26-.11,1.15-.28,2.66-2.8,2.66-4.95,0-2.73-1.61-4.31-2.01-4.52h-.16l-.51,2.22c1.33,1.46,1.74,3.34,1.79,4.36-.34.16-.8.39-3.19.39h-5.25c1.51-.62,2.61-1.24,3.26-1.88.62-.69.89-1.53.89-2.52,0-1.6-1.1-2.98-2.64-2.98-1.3,0-2.77.62-4.47,1.93-1.7,1.29-3.43,3.25-5.13,5.45h-1.22c-1.19,0-1.54-.94-1.54-1.95,0-.67.16-1.42.36-1.81l-.43-.23c-11.28,3.09-39.51,4.84-46.95,4.81-2.31-.02-4.2-.44-5.18-1.17-.87-.66-1.19-1.67-1.37-2.64l-.89-4.72c.52-.67.59-1.35.59-1.63l-.05-.09-.73.66-.32-1.72-.18-.11-1.28,1.65.32,1.53-3.3,3.03c-1.47,1.56-1.63,4.01-1.63,4.4,0,.83.53,1.33,1.63,1.33,1.74,0,3.69-1.72,4.44-3.5.2,1.29.55,2.36,1.12,3.19,1.29,1.83,3.94,2.48,7.22,2.5,7.1.03,34.9-2.01,46.22-4.51l-.53-.67v.91c0,2.73,1.45,3.35,2.16,3.35h.16c-.23.51-.48,1.03-.48,1.86,0,.25.04.44.05.71" fill="none" stroke="#1b130d" stroke-linecap="round" stroke-linejoin="round" stroke-width=".75"/><path d="M144.45,175.89c-.35,0-.59-.12-.59-.39,0-.3.28-.76.83-1.29l3.35-3.3.32,1.56c.09.41.16.76.16.89,0,1.29-2.27,2.54-4.08,2.54" fill="none" stroke="#1b130d" stroke-linecap="round" stroke-linejoin="round" stroke-width=".75"/><polygon points="145.14 165.99 145.9 164.8 147.94 165.99 149.18 164 146.93 162.72 146.2 163.88 144.16 162.72 142.89 164.66 145.14 165.99" fill="none" stroke="#1b130d" stroke-linecap="round" stroke-linejoin="round" stroke-width=".75"/><polygon points="220.56 184.71 221.93 182.51 219.43 181.09 218.1 183.2 220.56 184.71" fill="none" stroke="#1b130d" stroke-linecap="round" stroke-linejoin="round" stroke-width=".75"/><path d="M207.82,177.19c2.18-2.91,4.31-4.56,7.17-4.56,1.53,0,2.45.62,2.45,1.46,0,.48-1.07,1.08-3.37,1.9-1.85.67-3.78,1.17-6.24,1.21" fill="none" stroke="#1b130d" stroke-linecap="round" stroke-linejoin="round" stroke-width=".75"/><polygon points="211.36 167.57 212.74 165.37 210.24 163.91 208.91 166.06 211.36 167.57" fill="none" stroke="#1b130d" stroke-linecap="round" stroke-linejoin="round" stroke-width=".75"/><path d="M230.82,179.79c1.72,0,3.32-.21,4.36-1.07l-2.16-1.74c-.28.2-1.05.2-2.18.2-1.33,0-2.98-.16-3.3-2.59-.14-1.54-.14-11.98-.28-14.34l-.18-.09-1.4,1.63c.53,3.78.6,8.78.82,13.27.09,2.31.83,4.72,4.33,4.72" fill="none" stroke="#1b130d" stroke-linecap="round" stroke-linejoin="round" stroke-width=".75"/><path d="M239.05,179.79h.9c.43,0,.85-.07,1.07-.11,1.15-.28,2.66-2.8,2.66-4.95,0-1.12-.94-8.29-1.46-10.93l1.22,1.08.14-.2-2.18-4.52h-.16l-.53,1.81c-.07.14,0,.23.18.37l1.88,13.75c-.73.74-1.56,1.08-4.04,1.08-1.56,0-4.31-.5-5.29-3.19.66-.71,1.78-1.4,2.52-1.4.37,0,.98,1.62,1.06,2.71l-1.61,1.19,1.31.64c.62-.83,1.53-3.09,1.49-3.58-.09-1.81-.64-3.69-1.49-3.69-.39,0-1.01.32-1.47.62-1.99,1.61-2.94,4.21-2.94,5.02,0,2.41,3.14,4.29,6.74,4.29" fill="none" stroke="#1b130d" stroke-linecap="round" stroke-linejoin="round" stroke-width=".75"/><polygon points="233.39 166.38 234.16 165.26 236.16 166.38 237.47 164.45 235.18 163.13 234.42 164.32 232.45 163.13 231.12 165.12 233.39 166.38" fill="none" stroke="#1b130d" stroke-linecap="round" stroke-linejoin="round" stroke-width=".75"/><path d="M247.29,183.31c.46-1.28.85-2.48,1.08-3.58.35-1.47.46-2.84.46-3.96,0-.6-.02-1.08-.07-1.53l-1.56-12.37.07-1.61-.16-.09-.82,1.38c-.36.6-.62,1.23-.62,1.76,0,.07,0,.14.04.21l1.49,10.59c.27,1.95.43,3.19.43,4.29,0,.5-.05,1.03-.11,1.53-.34,2.24-.5,3-.55,3.21l.32.16Z" fill="none" stroke="#1b130d" stroke-linecap="round" stroke-linejoin="round" stroke-width=".75"/><path d="M9.28,165.5h.63c.33,0,.64.08.93.25.21.12.35.26.41.41.09.22.13.71.13,1.44v4.1h-6.61v-4.1c0-.71.04-1.18.12-1.4.08-.21.21-.36.42-.47.29-.16.61-.24.94-.24h.64v-.62H.38v.62h.63c.33,0,.65.08.94.24.2.12.34.26.4.41.09.22.13.71.13,1.44v9.48c0,1.06-.13,1.46-.24,1.6-.25.32-.67.49-1.24.49H.38v.62h6.51v-.62h-.64c-.33,0-.64-.08-.93-.25-.21-.12-.35-.26-.41-.41-.09-.22-.13-.71-.13-1.43v-4.37h6.61v4.37c0,1.06-.14,1.46-.25,1.6-.25.32-.66.49-1.23.49h-.63v.62h6.5v-.62h-.63c-.33,0-.64-.08-.94-.25-.2-.12-.34-.26-.4-.41-.09-.22-.13-.71-.13-1.43v-9.48c0-.71.04-1.18.12-1.4.07-.21.21-.36.42-.46.29-.16.61-.24.93-.24h.63v-.62h-6.5v.62Z" fill="none" stroke="#1b130d" stroke-linecap="round" stroke-linejoin="round" stroke-width=".75"/><path d="M27.1,165.56c1.36,0,2.44.48,3.21,1.43.97,1.21,1.46,3.08,1.46,5.56,0,2.28-.45,3.97-1.33,5.03-.87,1.04-2,1.57-3.34,1.57-1.25,0-2.27-.48-3.04-1.43-1.01-1.27-1.52-3.11-1.52-5.47s.49-4.08,1.46-5.26c.77-.94,1.81-1.42,3.08-1.42" fill="none" stroke="#1b130d" stroke-linecap="round" stroke-linejoin="round" stroke-width=".75"/><path d="M27.3,164.55c-1.94,0-3.63.65-5.03,1.95-1.6,1.49-2.42,3.44-2.42,5.79s.71,4.21,2.1,5.66c1.39,1.45,3.13,2.19,5.18,2.19s3.77-.75,5.19-2.24c1.42-1.49,2.14-3.38,2.14-5.64s-.72-4.04-2.13-5.5c-1.41-1.46-3.11-2.21-5.04-2.21" fill="none" stroke="#1b130d" stroke-linecap="round" stroke-linejoin="round" stroke-width=".75"/><path d="M52.09,175.58c-.37.89-.74,1.56-1.11,1.97-.36.41-.77.69-1.2.85-.44.16-1.23.24-2.34.24h-1.07c-1.16,0-1.54-.06-1.65-.1-.16-.06-.27-.16-.35-.28-.11-.21-.16-.61-.16-1.19v-9.23c0-1.06.09-1.46.16-1.61.1-.21.3-.38.6-.52.3-.14.84-.22,1.59-.21h.11s0-.62,0-.62h-6.87v.62h.66c.52,0,.92.15,1.18.44.13.14.28.55.28,1.65v9.48c0,1.01-.11,1.4-.21,1.54-.25.38-.65.56-1.24.56h-.66v.62h11.57l1.32-4.18-.56-.12-.04.08Z" fill="none" stroke="#1b130d" stroke-linecap="round" stroke-linejoin="round" stroke-width=".75"/><path d="M70.14,172.37c0,1.98-.55,3.57-1.63,4.72-1.08,1.15-2.46,1.73-4.09,1.73-.59,0-1.33-.1-2.2-.28v-12.33c.79-.19,1.49-.29,2.11-.29,1.69,0,3.1.58,4.18,1.72,1.08,1.15,1.63,2.74,1.63,4.73" fill="none" stroke="#1b130d" stroke-linecap="round" stroke-linejoin="round" stroke-width=".75"/><path d="M68.96,165.64c-1.15-.5-2.86-.76-5.06-.76h-6.09v.62h.66c.52,0,.92.15,1.18.44.13.14.28.55.28,1.65v9.49c0,1-.12,1.39-.22,1.54-.24.37-.64.55-1.23.55h-.66v.62h6.68c2.87,0,5.04-.78,6.45-2.33,1.26-1.39,1.89-3.14,1.89-5.2,0-1.54-.36-2.91-1.06-4.09-.7-1.18-1.65-2.03-2.81-2.54" fill="none" stroke="#1b130d" stroke-linecap="round" stroke-linejoin="round" stroke-width=".75"/><path d="M81.14,165.5h.63c.33,0,.64.08.94.24.2.12.34.26.4.41.09.22.13.71.13,1.43v9.49c0,1.06-.13,1.46-.24,1.6-.25.32-.67.49-1.24.49h-.63v.62h6.51v-.62h-.64c-.33,0-.64-.08-.93-.25-.21-.12-.35-.26-.41-.41-.09-.22-.13-.71-.13-1.43v-9.49c0-1.06.14-1.46.25-1.6.25-.32.66-.49,1.23-.49h.64v-.62h-6.51v.62Z" fill="none" stroke="#1b130d" stroke-linecap="round" stroke-linejoin="round" stroke-width=".75"/><path d="M106.26,165.5h.62c.54,0,.94.14,1.19.42.12.14.27.53.27,1.62v8.17l-8.79-10.79-.03-.04h-4.15v.62h.11c.41,0,.72.03.92.09.41.13.73.28.94.43.21.15.52.47.93.94v10.18c0,.99-.12,1.38-.22,1.52-.24.34-.66.52-1.24.52h-.62v.62h5.33v-.62h-.63c-.54,0-.94-.14-1.19-.42-.12-.14-.27-.53-.27-1.62v-8.75l9.5,11.6.03.04h.55v-12.5c0-.99.12-1.38.22-1.52.24-.35.64-.52,1.23-.52h.63v-.62h-5.33v.62Z" fill="none" stroke="#1b130d" stroke-linecap="round" stroke-linejoin="round" stroke-width=".75"/><path d="M125.65,172.19h.11c.57,0,.97.06,1.19.17.22.11.37.26.47.47.1.21.16.68.16,1.4v4.19c-.44.25-.91.44-1.38.57-.49.13-1.01.2-1.54.2-.9,0-1.79-.27-2.65-.79-.86-.52-1.56-1.36-2.09-2.5-.53-1.14-.8-2.41-.8-3.79,0-1.7.41-3.18,1.21-4.41.95-1.44,2.36-2.17,4.18-2.17,1.34,0,2.45.42,3.3,1.24.59.57,1.08,1.43,1.46,2.57l.02.07h.58l-.4-4.86h-.6v.1c-.03.43-.1.61-.16.68-.08.1-.16.15-.27.15-.08,0-.29-.04-.77-.22-.8-.3-1.43-.49-1.88-.58-.44-.09-.94-.13-1.48-.13-1.48,0-2.78.32-3.87.96-1.3.77-2.33,1.87-3.07,3.29-.63,1.19-.95,2.46-.95,3.77,0,1.8.57,3.41,1.68,4.79,1.49,1.84,3.69,2.77,6.55,2.77.99,0,1.91-.11,2.73-.32.81-.21,1.65-.55,2.49-1l.06-.03v-4.56c0-.77.07-1.28.2-1.53.19-.34.54-.51,1.06-.51h.38v-.63h-5.91v.63Z" fill="none" stroke="#1b130d" stroke-linecap="round" stroke-linejoin="round" stroke-width=".75"/></svg>