<?xml version="1.0" encoding="UTF-8"?>
<svg id="Layer_1" data-name="Layer 1" xmlns="http://www.w3.org/2000/svg" viewBox="0 0 208.78 158.45">
  <g>
    <path d="M25.06,123.34h-6.72l-8.53-11.78c-.63.02-1.14.04-1.54.04-.16,0-.34,0-.52-.01-.19,0-.38-.01-.58-.02v7.32c0,1.58.17,2.57.52,2.95.47.54,1.17.82,2.11.82h.98v.69H0v-.69h.95c1.06,0,1.83-.35,2.28-1.04.26-.39.39-1.29.39-2.73v-16.27c0-1.59-.17-2.57-.52-2.95-.49-.55-1.2-.82-2.16-.82h-.95v-.69h9.18c2.68,0,4.64.2,5.91.58,1.27.39,2.35,1.11,3.24,2.16.88,1.05,1.33,2.3,1.33,3.74,0,1.55-.5,2.89-1.52,4.03-1.01,1.14-2.57,1.95-4.69,2.41l5.2,7.23c1.19,1.66,2.21,2.76,3.07,3.3.85.55,1.97.89,3.34,1.04v.69ZM7.17,110.39c.23,0,.44,0,.61,0,.17,0,.31.01.42.01,2.41,0,4.21-.53,5.44-1.56,1.22-1.04,1.83-2.37,1.83-3.98s-.5-2.85-1.48-3.84c-.98-.98-2.29-1.47-3.91-1.47-.72,0-1.69.12-2.92.35v10.48Z"/>
    <path d="M49.15,114.9h-9.75l-1.71,3.98c-.42.98-.63,1.71-.63,2.19,0,.39.18.72.55,1.01s1.15.48,2.37.57v.69h-7.93v-.69c1.05-.19,1.74-.43,2.04-.73.63-.59,1.33-1.8,2.1-3.62l8.86-20.74h.65l8.77,20.96c.71,1.68,1.35,2.78,1.93,3.28.58.5,1.38.78,2.41.85v.69h-9.94v-.69c1-.05,1.68-.22,2.03-.5.35-.28.52-.63.52-1.04,0-.54-.25-1.4-.74-2.58l-1.52-3.62ZM48.63,113.53l-4.27-10.18-4.38,10.18h8.65Z"/>
    <path d="M95.47,98.15v.69c-.66,0-1.19.12-1.6.36-.41.23-.79.67-1.17,1.32-.25.43-.64,1.47-1.17,3.1l-7.02,20.31h-.74l-5.74-16.11-5.7,16.11h-.67l-7.49-20.92c-.55-1.56-.91-2.48-1.06-2.76-.25-.47-.58-.82-1.01-1.05-.43-.23-1.01-.35-1.74-.35v-.69h9.33v.69h-.44c-.66,0-1.16.15-1.51.45-.34.29-.52.66-.52,1.07,0,.44.27,1.44.82,3l4.96,14.13,4.19-12.02-.74-2.11-.6-1.69c-.26-.62-.55-1.17-.87-1.64-.16-.23-.36-.43-.59-.59-.31-.23-.62-.39-.93-.48-.23-.07-.61-.12-1.11-.12v-.69h9.81v.69h-.67c-.69,0-1.2.15-1.52.45-.32.29-.48.7-.48,1.2,0,.63.28,1.74.84,3.31l4.83,13.69,4.79-13.88c.55-1.53.82-2.6.82-3.19,0-.28-.09-.55-.26-.8-.18-.25-.41-.42-.68-.52-.47-.17-1.09-.26-1.84-.26v-.69h7.52Z"/>
    <path d="M114.15,114.9h-9.75l-1.71,3.98c-.42.98-.63,1.71-.63,2.19,0,.39.18.72.55,1.01s1.15.48,2.37.57v.69h-7.93v-.69c1.05-.19,1.74-.43,2.04-.73.63-.59,1.33-1.8,2.1-3.62l8.86-20.74h.65l8.77,20.96c.71,1.68,1.35,2.78,1.92,3.28.58.5,1.38.78,2.41.85v.69h-9.94v-.69c1-.05,1.68-.22,2.03-.5.35-.28.52-.63.52-1.04,0-.54-.25-1.4-.74-2.58l-1.52-3.62ZM113.63,113.53l-4.27-10.18-4.38,10.18h8.65Z"/>
    <path d="M134.33,98.83v-.69h10.79v.69h-.91c-1.03,0-1.78.31-2.25.91-.3.4-.44,1.35-.44,2.87v12.32c0,1.9-.21,3.43-.63,4.61-.42,1.17-1.13,2.2-2.14,3.07-1.01.88-2.24,1.31-3.67,1.31-1.17,0-2.09-.29-2.75-.86-.67-.58-1.01-1.24-1.01-1.98,0-.61.15-1.06.47-1.37.41-.39.88-.58,1.43-.58.39,0,.75.12,1.06.39.32.26.71.95,1.2,2.09.28.66.65,1,1.09,1,.34,0,.65-.2.94-.61.29-.41.44-1.13.44-2.17v-17.2c0-1.28-.08-2.12-.25-2.53-.12-.31-.38-.58-.78-.79-.53-.3-1.09-.45-1.68-.45h-.91Z"/>
    <path d="M160.71,99.53v9.95h5.54c1.44,0,2.39-.21,2.88-.65.64-.57,1-1.58,1.07-3.01h.69v8.77h-.69c-.17-1.22-.34-2.01-.52-2.36-.23-.43-.59-.77-1.09-1.02-.51-.25-1.29-.37-2.34-.37h-5.54v8.3c0,1.12.05,1.79.15,2.03.09.24.27.44.52.58.25.15.72.21,1.41.21h4.27c1.42,0,2.46-.09,3.1-.29.65-.2,1.27-.59,1.86-1.17.77-.77,1.55-1.93,2.36-3.47h.74l-2.18,6.31h-19.41v-.69h.89c.6,0,1.16-.15,1.69-.43.39-.2.66-.5.81-.89.14-.4.21-1.21.21-2.44v-16.37c0-1.6-.16-2.58-.48-2.95-.44-.5-1.19-.74-2.23-.74h-.89v-.69h19.41l.28,5.52h-.73c-.26-1.33-.55-2.24-.86-2.73-.31-.5-.79-.87-1.4-1.13-.5-.19-1.37-.28-2.62-.28h-6.91Z"/>
    <path d="M189.91,109.84h11.7v-7.21c0-1.28-.08-2.14-.24-2.54-.12-.31-.39-.58-.78-.79-.53-.3-1.1-.45-1.69-.45h-.9v-.69h10.78v.69h-.89c-.6,0-1.16.15-1.69.43-.39.2-.66.5-.81.9-.14.4-.21,1.22-.21,2.46v16.26c0,1.27.08,2.11.24,2.52.12.31.38.58.77.8.54.29,1.11.44,1.71.44h.89v.69h-10.78v-.69h.9c1.03,0,1.77-.31,2.25-.91.31-.39.47-1.35.47-2.86v-7.68h-11.7v7.68c0,1.27.08,2.11.24,2.52.12.31.38.58.78.8.53.29,1.09.44,1.69.44h.9v.69h-10.79v-.69h.89c1.04,0,1.8-.31,2.27-.91.3-.39.44-1.35.44-2.86v-16.26c0-1.28-.08-2.14-.24-2.54-.12-.31-.38-.58-.76-.79-.55-.3-1.12-.45-1.71-.45h-.89v-.69h10.79v.69h-.9c-.6,0-1.16.15-1.69.43-.39.2-.65.5-.8.9-.15.4-.22,1.22-.22,2.46v7.21Z"/>
  </g>
  <g>
    <path d="M200.71,33.77h-.5l-2.33,9.45c3.34,2.77,7.5,8.95,7.5,11.84,0,2.02-.82,4.85-3.02,8.82-5.98,10.77-18.65,18.71-25.51,18.71-2.53,0-6.15-.66-8.52-1.46,0,0,0,0,0,0,2.05-2.04,3.72-4.36,4.99-6.48,5.42-9.07,6.8-16.76,6.8-26.58,0-3.65-.44-9.45-2.52-13.99-1.76-3.9-3.72-5.8-5.8-5.8-3.28,0-9.58,11.15-9.58,17.07,0,4.28,3.53,7.69,7.5,7.69,3.02,0,4.66-2.02,6.11-4.28.51,1.13.88,2.58.88,5.1,0,3.21-.88,6.05-3.09,10.02-5.98,10.77-18.65,18.71-25.51,18.71-2.55,0-6.21-.67-8.58-1.48,0,0,0,0,0,0,1.49-4.21,2.65-8.15,3.48-11.75,1.26-5.42,1.7-10.21,1.7-14.11,0-2.08-.13-3.84-.32-5.42l-5.48-43.85.25-5.67-.63-.31-2.96,4.85c-1.26,2.08-2.02,4.35-2.02,6.24,0,.25,0,.5.06.76l5.29,37.55c.95,6.87,1.45,11.34,1.45,15.12,0,1.95-.13,3.72-.38,5.54-1.13,7.88-1.76,10.58-1.95,11.34l1.2.57s0,0,0,0c4.68,2.29,11.91,4.98,16.76,4.98,4.57,0,8.5-2.22,11.64-5.14,4.67,2.33,12.13,5.14,17.09,5.14,8,0,13.99-6.87,17.32-12.28,4.98-8.13,6.74-14.36,6.74-22.74,0-4.47-1.51-11.34-8.06-18.14ZM169.28,43.47c-1.26,0-2.21-.95-2.21-2.65,0-1.58,1.01-2.33,2.14-2.33,1.26,0,2.77.95,3.28,2.84-.94,1.32-2.21,2.14-3.21,2.14Z"/>
    <polygon points="101.08 76.73 109.46 81.71 114.06 74.09 105.81 69.49 101.08 76.73"/>
    <path d="M104.26,39.44c-7.5-3.59-13.48-5.61-18.77-5.61-8.82,0-15.43,5.1-21.17,14.55l1.32.88c3.34-4.41,8.06-6.99,15.75-6.99,6.46,0,15.09,3.59,20.21,6.45-8.77,3.61-25.52,11.57-39.3,11.57-8.32,0-15.56-2.9-19.21-11.47.69-.19,4.16-.82,10.71-.82l3.72-7.12-.19-.82c-2.46,0-6.24.06-10.08.06-4.54,0-9.13-.13-11.59-.57-6.24-1.07-12.54-2.83-18.02-2.83-7.18,0-13.04,2.96-16.06,14.24l.95.25c2.71-4.47,4.98-6.17,10.14-6.17,3.84,0,10.65.88,13.99,2.14C13.73,53.23.44,67.53,0,86.94h2.83c1.26-20.47,22.81-36.04,37.67-37.74,1.2,15.37,9.64,20.35,20.54,20.35,19.78,0,44.6-16.44,54.81-16.44,3.91,0,6.8.31,10.21.94l3.91-7.43-.19-.82c-8.57-1.13-17.64-2.58-25.51-6.36Z"/>
  </g>
  <g>
    <path d="M7.09,151.11c-2.03,0-3.56-.57-4.59-1.7-1.03-1.13-1.54-2.72-1.54-4.76,0-1.42.27-2.62.81-3.59.54-.98,1.28-1.72,2.22-2.22.94-.51,2.01-.76,3.21-.76.7,0,1.26.06,1.68.17.42.12.74.23.98.35.24.12.43.17.58.17.17,0,.29-.06.37-.19s.19-.29.32-.5h.56v4.39h-.65c-.22-1.28-.65-2.19-1.3-2.74-.65-.55-1.49-.82-2.51-.82-1.35,0-2.41.5-3.15,1.49-.75.99-1.12,2.34-1.12,4.03,0,1.96.39,3.42,1.18,4.38.79.96,1.86,1.45,3.23,1.45.6,0,1.11-.09,1.52-.27.42-.18.81-.41,1.2-.69v-2.07c0-.46-.04-.81-.12-1.04-.08-.24-.24-.4-.48-.48-.24-.08-.61-.12-1.09-.12v-.61h4.73v.61c-.54,0-.89.09-1.05.28-.17.19-.25.58-.25,1.18v2.78c-.69.4-1.39.71-2.09.95-.7.24-1.58.36-2.65.36Z"/>
    <path d="M26.14,150.9h-5.39v-.57c.49,0,.85-.04,1.09-.12.24-.08.4-.24.49-.5.08-.26.12-.65.12-1.19v-8.22c0-.36-.03-.64-.11-.84-.07-.2-.23-.35-.47-.44s-.62-.13-1.13-.13v-.57h4.72c.96,0,1.81.09,2.56.28.75.19,1.33.51,1.75.96.42.45.63,1.09.63,1.91,0,.72-.16,1.3-.49,1.74-.33.45-.73.8-1.23,1.05-.49.25-1,.44-1.52.57v.08c.22.13.46.35.74.66.27.31.63.77,1.06,1.38.43.61,1,1.42,1.71,2.43.31.42.6.69.89.81.29.11.65.17,1.08.17v.57h-3.16c-.52-.79-.96-1.45-1.31-1.98s-.65-.98-.89-1.34c-.24-.36-.46-.69-.65-.97-.19-.28-.38-.56-.57-.84-.19-.29-.37-.47-.53-.54s-.41-.1-.76-.1h-.54v3.39c0,.52.04.92.13,1.18.09.26.27.43.54.51.27.08.68.12,1.23.12v.57ZM24.25,144.38l.73.02c.7-.04,1.32-.15,1.84-.35.52-.19.93-.49,1.23-.9.29-.41.44-.95.44-1.63,0-.77-.24-1.37-.71-1.81-.47-.44-1.23-.66-2.26-.66-.2,0-.42,0-.63,0-.22,0-.43.02-.63.05v5.27Z"/>
    <path d="M45.39,151.13c-1.26,0-2.35-.26-3.27-.79-.91-.52-1.62-1.27-2.11-2.25-.49-.98-.74-2.14-.74-3.5s.25-2.44.74-3.42c.49-.98,1.19-1.74,2.11-2.28s2-.81,3.27-.81,2.37.27,3.28.8c.91.53,1.6,1.27,2.09,2.22.49.95.73,2.06.73,3.33,0,1.34-.25,2.51-.74,3.52-.49,1-1.19,1.79-2.1,2.35-.91.56-1.99.84-3.26.84ZM45.41,150.33c1.37,0,2.39-.49,3.06-1.48s1.01-2.44,1.01-4.37c0-1.15-.17-2.14-.52-2.98-.35-.84-.83-1.48-1.45-1.94-.62-.45-1.35-.68-2.18-.68-1.24,0-2.22.5-2.95,1.49-.73.99-1.09,2.36-1.09,4.11s.34,3.23,1.03,4.27c.68,1.05,1.72,1.57,3.1,1.57Z"/>
    <path d="M65.73,151.13c-1.7,0-2.94-.39-3.72-1.18s-1.17-2.07-1.17-3.84v-5.54c0-.45-.05-.79-.15-1.04-.1-.24-.29-.41-.56-.51-.27-.1-.66-.14-1.17-.14v-.57h5.52v.57c-.54,0-.94.05-1.21.14-.27.1-.45.27-.54.53-.09.26-.13.63-.13,1.11v5.42c0,.83.11,1.53.33,2.1.22.57.59,1,1.12,1.29.53.29,1.25.44,2.16.44,1.25,0,2.16-.3,2.71-.89s.83-1.55.83-2.87v-4.83c0-.68-.04-1.19-.12-1.54-.08-.35-.24-.59-.5-.72-.26-.13-.65-.19-1.19-.19v-.57h4.7v.57c-.55,0-.95.06-1.21.19s-.42.36-.49.7c-.07.34-.11.84-.11,1.5v4.62c0,1.74-.4,3.04-1.2,3.92-.8.88-2.11,1.31-3.92,1.31Z"/>
    <path d="M85.37,150.9h-5.41v-.57c.5,0,.87-.04,1.11-.13.24-.09.4-.27.48-.53.08-.26.12-.66.12-1.2v-8.24c0-.56-.12-.93-.35-1.09-.24-.17-.66-.25-1.27-.25v-.57h4.77c.61,0,1.2.05,1.77.14.57.1,1.07.26,1.51.49.44.23.79.55,1.05.97s.39.94.39,1.58c0,.74-.14,1.36-.42,1.87-.28.5-.66.91-1.14,1.22s-1.02.52-1.62.65c-.6.13-1.21.19-1.84.19-.19,0-.4-.01-.61-.04-.22-.03-.38-.06-.48-.12v3.28c0,.52.05.91.16,1.17.11.26.3.42.58.5.28.08.68.12,1.19.12v.57ZM84.47,144.63c.69,0,1.27-.09,1.74-.26.47-.17.83-.47,1.07-.88s.36-.99.36-1.73c0-.87-.25-1.54-.76-2-.51-.47-1.27-.7-2.31-.7-.19,0-.38,0-.57.02s-.38.03-.58.06v5.42c.1.01.25.03.45.05.2.02.39.03.58.03Z"/>
  </g>
  <path d="M207.51,147.75c-1.12,0-2.33-.24-3.18-1.04.29-.68.83-1.07,1.36-1.07,1.05,0,1.77,1.77,1.83,2.1ZM199.19,151.03c1.69,0,3.41-.82,4.28-2.55.71.47,2.46,1.3,3.7,1.3s1.62-1.05,1.62-2.09c0-1.48-1.23-4-2.42-4-1.8,0-2.56,2.94-3.32,4.13-.53.89-1.84,1.19-3.41,1.19s-2.95-.5-2.95-1.73c0-.19.03-.39.07-.61l-.78.04c-.01.37-.03.69-.03.96,0,2.38,1.48,3.36,3.24,3.36ZM194.41,153.72l1.01-1.68-1.8-1.02-1.05,1.61,1.84,1.09ZM182.22,149.29c-.72.03-1.92-.58-2.42-.97-.06-.04-.08-.08-.08-.12,0-.26.96-.87,1.2-.87.19,0,.29.21.42.42.07.15.55,1.07.89,1.55ZM168.83,158.45c1.76,0,3.07-1.48,3.78-2.67,1.18-1.99,1.5-3.67,1.5-5.83,0-.79-.1-2.08-.57-3.06-.4-.84-.79-1.27-1.26-1.27-.72,0-2.08,2.45-2.08,3.75,0,.93.76,1.66,1.63,1.66h3.64c1.18,0,2.59-.51,3.34-1.5.22,1.04,2.44,1.77,3.38,1.9.14.01.32.03.43.03.17,0,.32-.01.4-.17.12-.24.28-.54.35-.82.66.39,1.59.55,2.64.55,3.64,0,8.5-3.45,10.72-3.45.89,0,1.52.07,2.27.21l.83-1.62-.04-.17c-1.86-.28-3.84-.58-5.58-1.44-1.5-.68-2.74-1.15-3.78-1.15-1.54,0-2.74.87-4.14,3.13l.29.17c.82-1.05,1.8-1.45,2.92-1.45,1.2,0,2.66.46,4.38,1.27-1.7.72-5.04,2.48-7.62,2.48-1.14,0-2.3-.26-3.09-1.05-.76-.79-1.38-1.79-2.01-1.79-.44,0-1.16.51-1.88,1.52-.83,1.08-1.87,1.32-3.77,1.32h-3.79c-.28,0-.5-.22-.5-.57s.24-.51.48-.51c.83,0,1.63,2.19,1.63,3.28,0,.72-.19,1.36-.65,2.19-1.34,2.38-4.08,4.1-5.61,4.1-.58,0-1.43-.17-1.95-.36l-.06.18c1.02.51,2.66,1.14,3.75,1.14ZM158.09,148.71l2.69-.76c-1.59-.29-3.41-2.15-3.53-3.72.97-.93,2.55-1.27,3.95-1.27.89,0,1.48.06,2.87.72l.18-.24c-.87-1.27-2.2-2.17-3.92-2.17-2.49,0-4.08,2.33-4.08,4.31,0,1.22.57,2.38,1.86,3.14ZM104.67,138.96l.6-.91,1.56.91,1-1.54-1.76-1.02-.58.91-1.58-.91-1.01,1.55,1.77,1.01ZM123.51,151.6c6.19,0,21.7-.5,26.92-.93,6.65-.54,12.74-1.23,15.26-2.2.54-.66.93-1.3,1.38-2.1l-.06-.07c-3.27,1.04-9.69,1.74-16.89,2.3-3.06.24-14.18.97-25.99.97-10.29,0-11.89-.58-13.79-1.68-.79-.46-1.37-1.14-1.63-2.55l-1.07-5.84-.14-.07-1.01,1.29.69,3.31c.07.32.11.55.11.68,0,1-1.77,1.97-3.18,1.97-.28,0-.43-.08-.43-.26,0-.26.19-.62.62-1.04l3.42-3.34c.68-.65.76-1.33.76-1.63l-.06-.07-4.25,3.92c-1.15,1.22-1.29,3.12-1.29,3.46,0,.65.43,1,1.29,1,1.34,0,2.87-1.34,3.46-2.71.6,5.43,5.44,5.61,15.87,5.61Z"/>
</svg>